<svg width="373" height="234" viewBox="0 0 373 234" fill="none" xmlns="http://www.w3.org/2000/svg">
<path d="M78.836 0.299997V43H69.564V7.559H69.137L47.299 43H37.6L16.006 7.559H15.579V43H6.307V0.299997H22.777L42.724 33.118H43.151L63.342 0.299997H78.836ZM128.08 23.419V43H119.601V36.534H119.357C117.446 41.2513 111.874 43.61 102.643 43.61C91.9885 43.61 86.6612 40.194 86.6612 33.362V32.874C86.7018 26.9773 90.5042 23.907 98.0682 23.663L119.601 22.931V22.748C119.601 20.064 118.706 18.2543 116.917 17.319C115.168 16.343 112.24 15.855 108.133 15.855C104.758 15.855 102.257 16.1803 100.63 16.831C99.0035 17.441 97.8242 18.539 97.0922 20.125H88.2472C89.1825 16.6277 91.1548 14.086 94.1642 12.5C97.1735 10.8733 101.83 10.06 108.133 10.06H109.78C116.327 10.06 121.004 11.0767 123.81 13.11C126.657 15.1433 128.08 18.5797 128.08 23.419ZM95.2622 32.752V32.996C95.2622 34.7853 96.0552 36.0663 97.6412 36.839C99.2678 37.6117 101.789 37.998 105.205 37.998C109.516 37.998 112.993 37.2253 115.636 35.68C118.279 34.1347 119.601 31.9387 119.601 29.092V28.177L101.728 28.848C99.4508 28.9293 97.8038 29.275 96.7872 29.885C95.7705 30.495 95.2622 31.4507 95.2622 32.752ZM173.979 23.297V43H165.5V24.7C165.5 21.6093 164.626 19.5353 162.877 18.478C161.128 17.4207 158.648 16.892 155.435 16.892C151.816 16.892 148.928 17.563 146.773 18.905C144.658 20.247 143.601 22.687 143.601 26.225V43H135.061V10.67H143.601V16.648H143.967C146.204 12.256 150.921 10.06 158.119 10.06C163.121 10.06 167.005 11.0157 169.77 12.927C172.576 14.8383 173.979 18.295 173.979 23.297ZM221.189 23.419V43H212.71V36.534H212.466C210.554 41.2513 204.983 43.61 195.752 43.61C185.097 43.61 179.77 40.194 179.77 33.362V32.874C179.81 26.9773 183.613 23.907 191.177 23.663L212.71 22.931V22.748C212.71 20.064 211.815 18.2543 210.026 17.319C208.277 16.343 205.349 15.855 201.242 15.855C197.866 15.855 195.365 16.1803 193.739 16.831C192.112 17.441 190.933 18.539 190.201 20.125H181.356C182.291 16.6277 184.263 14.086 187.273 12.5C190.282 10.8733 194.938 10.06 201.242 10.06H202.889C209.436 10.06 214.113 11.0767 216.919 13.11C219.765 15.1433 221.189 18.5797 221.189 23.419ZM188.371 32.752V32.996C188.371 34.7853 189.164 36.0663 190.75 36.839C192.376 37.6117 194.898 37.998 198.314 37.998C202.624 37.998 206.101 37.2253 208.745 35.68C211.388 34.1347 212.71 31.9387 212.71 29.092V28.177L194.837 28.848C192.559 28.9293 190.912 29.275 189.896 29.885C188.879 30.495 188.371 31.4507 188.371 32.752ZM251.349 53.37H247.994C242.708 53.37 238.417 52.699 235.123 51.357C231.829 50.015 229.471 47.6767 228.047 44.342H237.807C238.58 45.5213 239.881 46.3347 241.711 46.782C243.541 47.2293 246.103 47.453 249.397 47.453C254.359 47.453 257.856 46.843 259.889 45.623C261.963 44.403 263 42.0443 263 38.547V34.521H262.756C261.658 36.717 259.93 38.3233 257.571 39.34C255.253 40.3567 251.919 40.865 247.567 40.865H246.774C240.674 40.865 236.018 39.767 232.805 37.571C229.633 35.3343 228.047 31.5727 228.047 26.286V24.639C228.047 19.3523 229.633 15.611 232.805 13.415C236.018 11.1783 240.674 10.06 246.774 10.06H247.567C251.919 10.1007 255.253 10.6293 257.571 11.646C259.93 12.622 261.658 14.2283 262.756 16.465H263V10.67H271.54V39.218C271.54 44.3827 269.853 48.0223 266.477 50.137C263.143 52.2923 258.1 53.37 251.349 53.37ZM239.759 32.752C241.874 33.8907 245.229 34.46 249.824 34.46C254.42 34.46 257.754 33.8907 259.828 32.752C261.943 31.6133 263 29.2953 263 25.798V25.127C263 21.6703 261.943 19.3727 259.828 18.234C257.754 17.0953 254.42 16.526 249.824 16.526C245.188 16.526 241.813 17.0953 239.698 18.234C237.624 19.332 236.587 21.6297 236.587 25.127V25.798C236.587 29.2547 237.645 31.5727 239.759 32.752ZM311.738 33.362H320.461C319.607 36.9 317.615 39.5027 314.483 41.17C311.352 42.7967 306.614 43.61 300.27 43.61H298.44C291.486 43.61 286.342 42.451 283.007 40.133C279.673 37.815 278.005 33.8703 278.005 28.299V25.432C278.005 19.8607 279.673 15.916 283.007 13.598C286.342 11.2393 291.486 10.06 298.44 10.06H299.965C307.001 10.06 312.226 11.2393 315.642 13.598C319.058 15.916 320.766 19.8607 320.766 25.432V28.726H286.484C286.525 30.5153 286.81 31.9997 287.338 33.179C287.908 34.3177 288.782 35.1717 289.961 35.741C291.181 36.3103 292.483 36.6967 293.865 36.9C295.289 37.1033 297.119 37.205 299.355 37.205C303.341 37.205 306.208 36.9407 307.956 36.412C309.705 35.8833 310.966 34.8667 311.738 33.362ZM299.355 15.855C295.126 15.855 291.995 16.3633 289.961 17.38C287.969 18.3967 286.83 20.3893 286.545 23.358H312.287V23.114C312.287 20.43 311.21 18.5593 309.054 17.502C306.899 16.404 303.666 15.855 299.355 15.855ZM44.859 70.67L21.374 113.37H12.407L18.629 102.939L0.695 70.67H9.906L23.021 94.521H23.448L36.014 70.67H44.859ZM70.0796 103.61H66.2976C59.3843 103.61 54.2196 102.451 50.8036 100.133C47.4283 97.7743 45.7406 93.8297 45.7406 88.299V85.432C45.7406 79.8607 47.4283 75.916 50.8036 73.598C54.2196 71.2393 59.3843 70.06 66.2976 70.06H70.0796C77.0336 70.06 82.1983 71.2393 85.5736 73.598C88.9896 75.916 90.6976 79.8607 90.6976 85.432V88.299C90.6976 93.8297 88.9896 97.7743 85.5736 100.133C82.1983 102.451 77.0336 103.61 70.0796 103.61ZM68.2496 96.778C73.211 96.778 76.7693 96.1883 78.9246 95.009C81.1206 93.789 82.2186 91.3693 82.2186 87.75V85.92C82.2186 82.3007 81.1206 79.9013 78.9246 78.722C76.7693 77.502 73.211 76.892 68.2496 76.892C63.2476 76.892 59.6486 77.502 57.4526 78.722C55.2973 79.9013 54.2196 82.3007 54.2196 85.92V87.75C54.2196 91.3693 55.2973 93.789 57.4526 95.009C59.6486 96.1883 63.2476 96.778 68.2496 96.778ZM96.628 90.373V70.67H105.107V88.97C105.107 92.0607 105.961 94.1347 107.669 95.192C109.418 96.2493 111.919 96.778 115.172 96.778C118.751 96.778 121.618 96.107 123.773 94.765C125.928 93.423 127.006 90.983 127.006 87.445V70.67H135.546V103H127.006V97.022H126.64C124.403 101.414 119.686 103.61 112.488 103.61C107.486 103.61 103.582 102.654 100.776 100.743C98.0107 98.8317 96.628 95.375 96.628 90.373ZM165.859 70.67H168.848V77.502H163.846C159.82 77.502 156.749 78.1527 154.635 79.454C152.561 80.7147 151.524 82.9717 151.524 86.225V103H142.984V70.67H151.524V76.587H151.768C153.557 72.6423 158.254 70.67 165.859 70.67ZM33.818 128.413V163H24.546V128.413H2.525V120.3H55.839V128.413H33.818ZM92.9932 143.419V163H84.5142V156.534H84.2702C82.3589 161.251 76.7876 163.61 67.5562 163.61C56.9016 163.61 51.5742 160.194 51.5742 153.362V152.874C51.6149 146.977 55.4172 143.907 62.9812 143.663L84.5142 142.931V142.748C84.5142 140.064 83.6196 138.254 81.8302 137.319C80.0816 136.343 77.1536 135.855 73.0462 135.855C69.6709 135.855 67.1699 136.18 65.5432 136.831C63.9166 137.441 62.7372 138.539 62.0052 140.125H53.1602C54.0956 136.628 56.0679 134.086 59.0772 132.5C62.0866 130.873 66.7429 130.06 73.0462 130.06H74.6932C81.2406 130.06 85.9172 131.077 88.7232 133.11C91.5699 135.143 92.9932 138.58 92.9932 143.419ZM60.1752 152.752V152.996C60.1752 154.785 60.9682 156.066 62.5542 156.839C64.1809 157.612 66.7022 157.998 70.1182 157.998C74.4289 157.998 77.9059 157.225 80.5492 155.68C83.1926 154.135 84.5142 151.939 84.5142 149.092V148.177L66.6412 148.848C64.3639 148.929 62.7169 149.275 61.7002 149.885C60.6836 150.495 60.1752 151.451 60.1752 152.752ZM121.141 163.61H119.799C113.13 163.61 108.189 162.939 104.976 161.597C101.763 160.214 99.7096 157.835 98.8149 154.46H107.904C108.677 155.639 110.039 156.453 111.991 156.9C113.984 157.307 116.891 157.51 120.714 157.51C125.35 157.51 128.542 157.225 130.291 156.656C132.04 156.046 132.955 154.968 133.036 153.423V153.24C133.036 152.061 132.467 151.268 131.328 150.861C130.189 150.414 128.014 150.129 124.801 150.007L113.089 149.58C108.412 149.417 105.057 148.645 103.024 147.262C100.991 145.879 99.9739 143.704 99.9739 140.735V140.064C99.9739 136.404 101.58 133.822 104.793 132.317C108.006 130.812 112.967 130.06 119.677 130.06H120.47C126.57 130.06 131.125 130.792 134.134 132.256C137.143 133.72 139.278 136.038 140.539 139.21H131.328C129.986 137.136 126.082 136.099 119.616 136.099C115.427 136.099 112.52 136.384 110.893 136.953C109.266 137.482 108.453 138.437 108.453 139.82V140.003C108.453 141.182 109.002 141.975 110.1 142.382C111.32 142.829 113.516 143.114 116.688 143.236L128.4 143.663C133.158 143.866 136.513 144.639 138.465 145.981C140.458 147.323 141.454 149.499 141.454 152.508V153.118C141.454 157.063 139.827 159.808 136.574 161.353C133.321 162.858 128.176 163.61 121.141 163.61ZM156.111 153.85V163H147.571V120.3H156.111V145.432H156.355L177.461 130.67H189.356L169.714 144.395L191.064 163H179.047L163.248 149.031H163.004L156.111 153.85ZM281.174 130.67L268.852 163H257.689L245.855 138.478L234.082 163H222.248L209.926 130.67H219.442L228.958 155.253H229.324L241.158 130.67H250.979L262.813 155.253H263.179L272.695 130.67H281.174ZM285.416 120.3H293.956V126.339H285.416V120.3ZM285.416 130.67H293.956V163H285.416V130.67ZM307.846 137.075H298.879V130.67H307.846V120.3H316.325V130.67H328.342V137.075H316.325V149.458C316.325 152.427 316.975 154.358 318.277 155.253C319.619 156.148 321.998 156.595 325.414 156.595H328.342V163H322.73C317.24 163 313.376 162.085 311.14 160.255C308.944 158.425 307.846 155.212 307.846 150.617V137.075ZM372.944 143.297V163H364.465V144.7C364.465 141.609 363.59 139.535 361.842 138.478C360.093 137.421 357.612 136.892 354.4 136.892C350.78 136.892 347.893 137.563 345.738 138.905C343.623 140.247 342.566 142.687 342.566 146.225V163H334.026V120.3H342.566V136.648H342.932C345.168 132.256 349.886 130.06 357.084 130.06C362.086 130.06 365.969 131.016 368.735 132.927C371.541 134.838 372.944 138.295 372.944 143.297Z" fill="white"/>
<path d="M63.281 200.43V202.87C63.281 210.271 61.329 215.477 57.425 218.486C53.5617 221.495 46.7297 223 36.929 223H6.307V180.3H36.563C46.4043 180.3 53.3177 181.825 57.303 184.875C61.2883 187.884 63.281 193.069 63.281 200.43ZM34.306 187.864H15.579V215.436H34.306C39.7553 215.436 43.883 214.989 46.689 214.094C49.495 213.199 51.386 211.837 52.362 210.007C53.3787 208.177 53.887 205.513 53.887 202.016V201.406C53.887 197.909 53.3787 195.245 52.362 193.415C51.386 191.544 49.495 190.162 46.689 189.267C43.883 188.332 39.7553 187.864 34.306 187.864ZM110.924 203.419V223H102.445V216.534H102.201C100.29 221.251 94.7182 223.61 85.4869 223.61C74.8322 223.61 69.5049 220.194 69.5049 213.362V212.874C69.5456 206.977 73.3479 203.907 80.9119 203.663L102.445 202.931V202.748C102.445 200.064 101.55 198.254 99.7609 197.319C98.0122 196.343 95.0842 195.855 90.9769 195.855C87.6016 195.855 85.1006 196.18 83.4739 196.831C81.8472 197.441 80.6679 198.539 79.9359 200.125H71.0909C72.0262 196.628 73.9986 194.086 77.0079 192.5C80.0172 190.873 84.6736 190.06 90.9769 190.06H92.6239C99.1712 190.06 103.848 191.077 106.654 193.11C109.501 195.143 110.924 198.58 110.924 203.419ZM78.1059 212.752V212.996C78.1059 214.785 78.8989 216.066 80.4849 216.839C82.1116 217.612 84.6329 217.998 88.0489 217.998C92.3596 217.998 95.8366 217.225 98.4799 215.68C101.123 214.135 102.445 211.939 102.445 209.092V208.177L84.5719 208.848C82.2946 208.929 80.6476 209.275 79.6309 209.885C78.6142 210.495 78.1059 211.451 78.1059 212.752ZM157.506 190.67L134.021 233.37H125.054L131.276 222.939L113.342 190.67H122.553L135.668 214.521H136.095L148.661 190.67H157.506ZM184.114 188.413V223H174.842V188.413H152.821V180.3H206.135V188.413H184.114ZM243.289 203.419V223H234.81V216.534H234.566C232.655 221.251 227.083 223.61 217.852 223.61C207.197 223.61 201.87 220.194 201.87 213.362V212.874C201.911 206.977 205.713 203.907 213.277 203.663L234.81 202.931V202.748C234.81 200.064 233.915 198.254 232.126 197.319C230.377 196.343 227.449 195.855 223.342 195.855C219.967 195.855 217.466 196.18 215.839 196.831C214.212 197.441 213.033 198.539 212.301 200.125H203.456C204.391 196.628 206.364 194.086 209.373 192.5C212.382 190.873 217.039 190.06 223.342 190.06H224.989C231.536 190.06 236.213 191.077 239.019 193.11C241.866 195.143 243.289 198.58 243.289 203.419ZM210.471 212.752V212.996C210.471 214.785 211.264 216.066 212.85 216.839C214.477 217.612 216.998 217.998 220.414 217.998C224.725 217.998 228.202 217.225 230.845 215.68C233.488 214.135 234.81 211.939 234.81 209.092V208.177L216.937 208.848C214.66 208.929 213.013 209.275 211.996 209.885C210.979 210.495 210.471 211.451 210.471 212.752ZM271.437 223.61H270.095C263.425 223.61 258.484 222.939 255.272 221.597C252.059 220.214 250.005 217.835 249.111 214.46H258.2C258.972 215.639 260.335 216.453 262.287 216.9C264.279 217.307 267.187 217.51 271.01 217.51C275.646 217.51 278.838 217.225 280.587 216.656C282.335 216.046 283.25 214.968 283.332 213.423V213.24C283.332 212.061 282.762 211.268 281.624 210.861C280.485 210.414 278.309 210.129 275.097 210.007L263.385 209.58C258.708 209.417 255.353 208.645 253.32 207.262C251.286 205.879 250.27 203.704 250.27 200.735V200.064C250.27 196.404 251.876 193.822 255.089 192.317C258.301 190.812 263.263 190.06 269.973 190.06H270.766C276.866 190.06 281.42 190.792 284.43 192.256C287.439 193.72 289.574 196.038 290.835 199.21H281.624C280.282 197.136 276.378 196.099 269.912 196.099C265.723 196.099 262.815 196.384 261.189 196.953C259.562 197.482 258.749 198.437 258.749 199.82V200.003C258.749 201.182 259.298 201.975 260.396 202.382C261.616 202.829 263.812 203.114 266.984 203.236L278.696 203.663C283.454 203.866 286.809 204.639 288.761 205.981C290.753 207.323 291.75 209.499 291.75 212.508V213.118C291.75 217.063 290.123 219.808 286.87 221.353C283.616 222.858 278.472 223.61 271.437 223.61ZM306.407 213.85V223H297.867V180.3H306.407V205.432H306.651L327.757 190.67H339.652L320.01 204.395L341.36 223H329.343L313.544 209.031H313.3L306.407 213.85Z" fill="#FED36A"/>
</svg>
